# xmcd
#
# Track frame offsets:
#	150
#	18400
#	35415
#	50134
#	66232
#	81438
#	95700
#	114367
#	125228
#	137269
#	152882
#	169398
#	188232
#	200660
#
# Disc length: 2892 seconds
#
# Revision: 1
# Processed by: cddbd v1.4PL0 Copyright (c) Steve Scherf et al.
# Submitted via: audiograbber 1.82.01
#
DISCID=cf0b4a0e
DTITLE=Luan and Leomar - Coração de Mulher
DYEAR=2002
DGENRE=Sertanejo
TTITLE0=Pra Sempre Vou Te Amar ( Forever By Your Side )
TTITLE1=Coração de Mulher
TTITLE2=Tô Morrendo de Saudade
TTITLE3=Lua de Mel
TTITLE4=O Que é Que Eu Faço Pra Te Amar
TTITLE5=É Amor
TTITLE6=Volta Pra Casa
TTITLE7=Xonado, Xonado  Nelo
TTITLE8=Eu Quero Vê-La Dançar
TTITLE9=Maldita Saudade
TTITLE10=Não Há Nada
TTITLE11=Se Ainda Me Ama
TTITLE12=Eu Bebo
TTITLE13=Brinde do Adeus
EXTD=
EXTT0=
EXTT1=
EXTT2=
EXTT3=
EXTT4=
EXTT5=
EXTT6=
EXTT7=
EXTT8=
EXTT9=
EXTT10=
EXTT11=
EXTT12=
EXTT13=
PLAYORDER=
